<svg width="328" height="237" viewBox="0 0 328 237" fill="none" xmlns="http://www.w3.org/2000/svg">
<path d="M203.618 231.21C83.6284 242.947 21.1265 177.837 35.2301 140.915C51.7695 106.288 188.599 108.971 275.531 114.14C347.744 118.435 353.605 216.54 203.618 231.21Z" fill="#FADB28"/>
<path d="M180.528 22.6053C191.762 38.2854 165.453 47.3477 146.001 41.5584L147.212 44.8468C156.195 47.9626 176.348 53.6041 182.53 63.2171C189.666 74.3161 191.407 85.3732 191.945 94.8105C218.578 104.826 222.378 78.6537 249.658 65.476C242.86 67.6979 235.712 73.7932 232.781 76.801C234.587 66.273 237.574 43.4504 235.069 36.3839C233.067 36.126 230.942 34.8176 229.165 31.3802C224.16 21.7002 240.675 6.70212 249.227 18.0646C254.531 25.1122 253.13 52.253 251.565 64.5937C256.935 62.2172 263.183 60.3463 270.624 59.3143C279.926 58.0242 283.983 58.7694 279.133 67.6333C274.593 75.9306 277.299 82.8622 284.481 85.1723C287.339 86.0914 295.059 86.4964 295.059 86.4964C300.038 87.2283 302.403 89.248 292.745 97.9638C282.723 107.008 276.18 120.399 276.422 127.527C275.439 129.312 272.24 132.267 265.965 134.409C291.707 126.063 307.277 100.298 307.277 100.298L310.32 99.1773C308.862 99.0579 307.213 98.2312 305.658 95.9006C301.48 89.6374 307.124 74.4528 318.562 81.7879C326.703 87.0086 328.851 100.653 317.079 117.597C308.687 129.677 295.162 142.83 278.389 153.719C250.274 171.971 190.887 185.934 157.386 176.392C130.457 168.721 108.318 149.588 94.8016 127.601L90.4895 119.922C66.2812 99.7613 27.4852 82.137 16.8158 109.245C2.22001 146.328 42.7703 159.9 56.272 160.325C65.3144 160.61 74.9809 158.649 74.3115 167.657C73.4746 178.918 -10.636 176.313 1.128 111.28C7.27681 77.2888 56.6721 77.41 81.723 94.4362C78.6687 70.5785 100.947 46.2203 119.793 48.1519C139.49 50.1708 119.678 40.0846 118.219 30.8973C116.959 22.9659 129.605 21.1402 141.349 23.8711C140.666 23.6515 139.959 23.4155 139.228 23.1621C147.24 22.4313 149.618 0.220959 165.029 8.57916C173.848 13.3622 165.082 22.3694 159.629 23.9024C159.582 24.6076 159.052 25.392 157.736 25.8975C167.505 23.8619 176.864 17.4905 180.528 22.6053Z" fill="white"/>
<path d="M257.695 65.1354C261.545 62.1465 269.266 67.7037 264.308 73.653" stroke="black" stroke-width="1.5" stroke-linecap="round"/>
<path d="M261.421 86.7403C257.52 89.6609 249.898 83.9686 254.959 78.1075" stroke="black" stroke-width="1.5" stroke-linecap="round"/>
<path d="M268.7 79.8973C272.55 76.9084 280.271 82.4657 275.313 88.415" stroke="black" stroke-width="1.5" stroke-linecap="round"/>
<path d="M209.583 106.178C211.298 111.439 208.952 119.872 196.021 115.478C189.61 113.078 191.746 96.717 194.484 95.7087C198.143 94.3618 207.44 99.6026 209.583 106.178Z" fill="#B4BCF6"/>
<path d="M161.561 11.4122C162.455 14.153 161.232 18.5463 154.496 16.2571C151.155 15.0071 150.952 10.0141 154.178 7.96852C155.893 6.88082 160.445 7.98619 161.561 11.4122Z" fill="#B4BCF6"/>
<path d="M164.217 5.90498C164.582 7.02603 164.082 8.823 161.327 7.88667C159.96 7.37537 159.877 5.33313 161.197 4.49644C161.898 4.05154 163.76 4.50366 164.217 5.90498Z" fill="#B4BCF6"/>
<path d="M158.727 4.57148C159.092 5.69253 158.592 7.48951 155.837 6.55318C154.471 6.04188 154.387 3.99963 155.707 3.16294C156.408 2.71805 158.27 3.17017 158.727 4.57148Z" fill="#B4BCF6"/>
<path d="M166.99 10.5895C167.355 11.7106 166.855 13.5076 164.1 12.5712C162.733 12.0599 162.65 10.0177 163.97 9.18101C164.671 8.73611 166.533 9.18823 166.99 10.5895Z" fill="#B4BCF6"/>
<path d="M147.282 35.857C166.733 41.6463 193.043 32.584 181.808 16.9039C176.763 9.86167 160.923 24.5935 148.081 19.8036C135.239 15.0136 118.039 16.0086 119.499 25.1959C120.958 34.3832 140.77 44.4694 121.073 42.4505C101.376 40.4316 77.9286 67.132 83.5751 91.9634C71.0187 83.3196 52.5965 74.1756 36.1324 75.5452C19.8517 76.8995 5.47538 88.6234 2.40827 105.579C-9.35572 170.612 74.7549 173.217 75.5918 161.956C76.2612 152.947 66.5947 154.909 57.5523 154.624C44.0506 154.199 3.50028 140.627 18.0961 103.543C28.7655 76.4356 67.5615 94.0599 91.7698 114.221L96.0818 121.9C109.599 143.886 131.737 163.02 158.666 170.691C192.167 180.233 251.555 166.269 279.67 148.017C296.442 137.129 309.968 123.975 318.359 111.896C330.131 94.9515 327.984 81.3072 319.842 76.0865C308.404 68.7514 302.76 83.936 306.939 90.1992C311.117 96.4625 315.977 91.8644 315.977 91.8644M148.492 39.1453C157.476 42.2612 177.629 47.9027 183.81 57.5157C190.947 68.6147 192.687 79.6718 193.225 89.1091M193.225 89.1091C194.119 104.774 191.702 115.977 205.159 115.501M193.225 89.1091C220.467 99.3539 223.82 71.7375 252.845 58.8923M193.225 89.1091C193.068 89.05 192.91 88.9896 192.751 88.9279M252.845 58.8923C254.41 46.5516 255.812 19.4108 250.507 12.3632C241.955 1.00071 225.441 15.9988 230.445 25.6788C232.222 29.1162 234.347 30.4245 236.349 30.6824M252.845 58.8923C252.829 59.0185 252.813 59.1431 252.797 59.2661M252.845 58.8923C258.215 56.5158 264.463 54.6449 271.905 53.6129C281.206 52.3228 285.264 53.068 280.414 61.9319C275.874 70.2292 278.579 77.1608 285.761 79.4709C288.619 80.39 296.339 80.795 296.339 80.795C301.318 81.5269 303.684 83.5466 294.026 92.2624C284.003 101.307 277.46 114.698 277.702 121.825M160.91 18.201C166.362 16.668 175.129 7.66076 166.309 2.87774C150.898 -5.48046 148.52 16.7299 140.509 17.4607M236.349 30.6824C239.985 31.1508 243.215 28.1547 243.215 28.1547M236.349 30.6824C238.854 37.749 235.867 60.5716 234.061 71.0996M308.557 94.5963C308.557 94.5963 286.729 130.719 252.032 131.276" stroke="black" stroke-width="1.5" stroke-linecap="round"/>
<circle cx="241.217" cy="73.993" r="8.3235" transform="rotate(24.3702 241.217 73.993)" fill="#FF3F54"/>
<path d="M228.523 71.8541L241.925 72.6504" stroke="black" stroke-width="1.5" stroke-linecap="round"/>
<path d="M230.826 64.9589L241.888 72.568" stroke="black" stroke-width="1.5" stroke-linecap="round"/>
<circle r="8.3235" transform="matrix(-0.748625 -0.662993 -0.662993 0.748625 262.721 99.9906)" fill="#FF3F54"/>
<path d="M269.857 110.704L263.657 98.7955" stroke="black" stroke-width="1.5" stroke-linecap="round"/>
<path d="M275.21 105.786L263.747 98.7961" stroke="black" stroke-width="1.5" stroke-linecap="round"/>
<path d="M86.7862 91.3344C88.1497 89.4738 90.4206 88.8195 91.8584 89.8731C93.2961 90.9267 93.9592 94.4356 92.5957 96.2963C91.2322 98.1569 88.3585 97.6647 86.9207 96.6111C85.483 95.5575 85.4228 93.195 86.7862 91.3344Z" fill="#B4BCF6"/>
<path d="M87.9878 94.1797C87.7545 94.3275 87.6852 94.6364 87.833 94.8696C87.9808 95.1029 88.2897 95.1722 88.5229 95.0244L87.9878 94.1797ZM91.7305 92.9924C91.9638 92.8447 92.0331 92.5358 91.8853 92.3025C91.7375 92.0692 91.4286 91.9999 91.1953 92.1477L91.7305 92.9924ZM88.5229 95.0244L91.7305 92.9924L91.1953 92.1477L87.9878 94.1797L88.5229 95.0244Z" fill="white"/>
<path d="M90.4526 95.4575C90.6004 95.6908 90.9093 95.7601 91.1426 95.6123C91.3758 95.4645 91.4452 95.1556 91.2974 94.9224L90.4526 95.4575ZM89.2654 91.7148C89.1176 91.4815 88.8087 91.4122 88.5754 91.56C88.3422 91.7078 88.2729 92.0167 88.4206 92.25L89.2654 91.7148ZM91.2974 94.9224L89.2654 91.7148L88.4206 92.25L90.4526 95.4575L91.2974 94.9224Z" fill="white"/>
<path d="M268.205 71.1997C268.205 71.1997 269.599 72.1932 270.618 73.7416C271.637 75.2899 271.999 76.9628 271.999 76.9628M267.703 61.9143L279.706 80.15" stroke="#FADB28"/>
<path d="M256.707 57.0078C257.701 57.9561 258.637 58.0673 260.385 58.1005M260.385 58.1005C262.57 58.1419 265.265 58.7719 267.756 62.5566C270.247 66.3414 268.552 70.4157 267.011 72.6629C264.563 74.4383 258.808 76.6817 255.026 70.9357C251.244 65.1898 255.851 59.359 260.385 58.1005Z" stroke="#FF9FA9" stroke-width="1.5"/>
<path d="M280.547 93.2294C280.07 91.9414 280.338 91.0376 280.998 89.4192M280.998 89.4192C281.824 87.3962 282.312 84.6715 279.82 80.8867C277.329 77.1019 272.917 77.0474 270.243 77.5743C267.645 79.1203 263.308 83.5198 267.09 89.2658C270.872 95.0118 278.049 93.0862 280.998 89.4192Z" stroke="#FF9FA9" stroke-width="1.5"/>
</svg>
