<svg width="461" height="253" viewBox="0 0 461 253" fill="none" xmlns="http://www.w3.org/2000/svg">
<path d="M141.489 134.531C343.579 140.664 476.881 143.746 454.857 184.403C428.628 222.99 269.52 227.488 122.984 234.033C1.25858 239.47 -77.2428 127.893 141.489 134.531Z" fill="#FADB28"/>
<path d="M102.02 39.133C96.8202 25.7997 91.3773 28.9855 85.2462 40.7891C80.3007 50.3103 77.0905 61.2024 75.2332 72.9703C71.8419 94.4581 72.9614 118.866 76.2634 143.181C77.5062 153.647 66.5706 159.032 64.1351 160.876C58.9342 162.685 62.6088 168.537 61.3843 170.656C57.6438 177.129 66.3826 180.13 74.2114 180.13C81.0976 180.13 92.9978 179.315 96.0736 174.018L96.1049 174.024C98.357 174.485 105.127 175.869 108.409 177.991C112.511 180.644 115.34 177.222 116.966 183.187C118.488 188.764 131.013 192.394 140.806 191.439C157.31 191.439 157.339 187.179 163.423 185.02C163.423 185.02 183.289 186.549 194.597 183.187C205.905 179.825 205.905 176.157 205.905 176.157C216.234 175.363 220.323 178 234.329 177.991C251.75 179.825 257.606 173.148 265.504 174.629C299.089 180.926 350.104 159.959 359.944 159.959C379.199 159.959 388.979 180.436 405.041 173.3C422.492 167.989 418.466 154.695 405.041 149.087C413.43 137.647 404.074 126.233 363.612 139.62C353.23 135.126 344.505 130.098 338.107 130.098C328.603 130.098 314.626 125.322 300.211 118.678C341.495 107.554 359.148 90.5031 365.88 75.4617C380.585 42.6048 346.532 -7.82077 307.614 22.0713C299.077 28.6286 309.202 43.3611 315.952 34.4711C328.87 17.4574 359.354 32.8185 353.791 64.5232C349.28 90.2273 299.266 102.268 269.823 103.008C231.481 85.4365 190.907 97.818 174.576 106.819C154.937 87.1476 147.641 60.9123 147.321 51.9842C146.964 42.0405 145.533 37.6783 143.452 36.5149C141.68 35.5237 139.437 36.8538 136.987 39.0321C136.987 39.0321 129.517 47.0391 125.918 49.3022C117.772 54.4243 108.867 52.1965 103.62 42.5908C103.04 41.5284 102.505 40.3759 102.02 39.133Z" fill="white"/>
<path d="M202.894 165.739C202.208 174.871 221.803 175.618 245.376 173.38C256.95 171.853 278.883 170.04 257.907 158.404C249.913 153.969 203.752 154.323 202.894 165.739Z" fill="#B4BCF6"/>
<circle r="8.31818" transform="matrix(-0.984613 0.174751 0.174751 0.984613 83.5842 89.4825)" fill="#FF3F54"/>
<circle r="8.31818" transform="matrix(-0.984613 0.174751 0.174751 0.984613 132.201 90.2883)" fill="#FF3F54"/>
<path d="M129.013 74.7676C128.961 67.9632 116.193 64.3049 113.958 74.8837" stroke="black" stroke-width="1.5" stroke-linecap="round"/>
<path d="M100.711 74.7546C100.659 67.9501 87.8912 64.2919 85.6564 74.8706" stroke="black" stroke-width="1.5" stroke-linecap="round"/>
<path d="M145.023 91.3519L131.848 88.8135" stroke="black" stroke-width="1.5" stroke-linecap="round"/>
<path d="M144.495 84.106L131.904 88.7429" stroke="black" stroke-width="1.5" stroke-linecap="round"/>
<path d="M73.3804 82.1672L84.9469 88.967" stroke="black" stroke-width="1.5" stroke-linecap="round"/>
<path d="M71.4523 89.1716L84.8686 89.014" stroke="black" stroke-width="1.5" stroke-linecap="round"/>
<path d="M81.1899 141.675C78.0136 118.286 76.9367 94.8072 80.1989 74.1374C81.9855 62.8175 85.0734 52.3401 89.8307 43.1813C95.7284 31.8271 100.964 28.7626 105.966 41.5883C106.432 42.7838 106.947 43.8926 107.505 44.9145C112.552 54.1545 121.118 56.2974 128.954 51.3704C132.416 49.1934 139.601 41.4912 139.601 41.4912C141.959 39.3959 144.116 38.1164 145.821 39.0698C147.822 40.189 149.199 44.3851 149.542 53.9502C149.85 62.5385 156.869 87.775 175.759 106.697M203.157 170.648C218.002 175.919 234.792 174.979 264.895 170.648C296.655 179.651 331.678 159.795 348.152 159.347C389.475 158.225 386.63 175.083 401.205 170.648C422.745 164.093 406.515 144.894 384.572 144.894C362.628 144.894 354.236 128.942 343.113 128.942C329.065 128.942 294.81 118.243 274.531 106.697C240.509 87.326 203.183 94.8039 183.186 103.153M367.588 137.953C406.509 125.076 404.477 144.894 397.45 146.729M273.072 102.019C301.381 101.331 343.808 90.7662 348.152 66.0119C353.503 35.5142 324.179 20.7379 311.753 37.1039C305.26 45.6554 295.521 31.4838 303.733 25.1761C341.169 -3.57792 373.926 44.928 359.78 76.5339C353.304 91.004 339.988 104.962 300.269 115.663" stroke="black" stroke-width="1.5" stroke-linecap="round"/>
<circle r="1.83379" transform="matrix(-1 0 0 1 102.297 90.5801)" fill="black"/>
<path d="M175.439 127.159C182.714 135.426 197.859 153.448 200.24 159.4C203.216 166.841 204.703 177.257 191.807 179.737C183.871 181.721 173.206 184.697 162.046 181.225C160.558 181.804 156.937 183.606 154.357 186.185C151.778 188.765 145.016 188.417 141.957 187.921C138.187 190.501 132.615 188.996 130.3 187.921C125.539 188.913 121.703 186.185 120.38 184.697C118.229 181.014 118.138 177.895 119.173 175.332M189.079 154.688C185.607 152.704 175.686 149.331 163.782 151.712C157.499 152.456 142.006 156.523 130.3 166.841C126.56 167.904 121.038 170.717 119.173 175.332M99.8942 171.725C103.097 174.945 112.87 177.606 119.173 175.332" stroke="black" stroke-width="1.5" stroke-linecap="round"/>
<path d="M91.8543 175.769C96.0208 174.182 98.7947 173.391 100.2 171.573C100.964 157.055 87.5554 146.09 80.9418 142.288C75.2374 148.488 79.952 150.472 74.992 155.184C70.032 159.896 73.2537 161.136 70.2776 162.624C67.3015 164.112 64.4509 163.616 62.3434 167.089C59.3277 176.811 63.8465 177.753 66.3596 177.505M91.8543 175.769C86.6461 177.753 84.91 178.993 80.9418 178.745M91.8543 175.769C93.8364 170.908 92.6802 167.295 91.8543 166.097M80.9418 178.745C77.139 180.564 74.3757 180.357 71.8897 180.357C68.7895 180.357 66.8803 179.172 66.3596 177.505M80.9418 178.745C75.6821 175.075 77.2638 168.205 78.7122 165.229M68.0453 166.097C64.8811 169.594 65.2954 174.098 66.3596 177.505" stroke="black" stroke-width="1.5" stroke-linecap="round"/>
</svg>
