<svg width="234" height="286" viewBox="0 0 234 286" fill="none" xmlns="http://www.w3.org/2000/svg">
<path d="M75.6852 118.772C33.149 162.561 26.2244 238.637 28.0792 271.202C10.68 267.499 14.505 269.367 7.92999 269.367C-4.10886 269.367 0.728985 289.499 12.0915 284.967C17.3496 282.87 38.2619 288.443 48.9162 280.039C60.6719 270.766 116.9 277.222 132.48 280.039C148.059 282.855 150.506 285.978 165.055 284.967C175.385 284.25 181.238 268.56 163.431 268.318L150.916 269.59C149.113 263.933 148.228 258.497 148.779 252.042C148.779 252.042 150.414 252.481 153.481 253.421C175.869 260.281 207.867 250.601 212.798 222.218C218.339 190.327 197.714 166.103 191.557 145.251C185.4 124.399 197.406 107.987 203.01 107.987C208.615 107.987 210.335 111.213 212.798 117.653C214.768 122.804 218.877 124.294 220.685 124.395C228.221 122.844 224.585 111.479 223.24 107.987C217.349 92.6957 190.581 84.5899 183.176 123.519C175.77 162.449 205.499 182.394 203.01 213.319C200.545 243.957 167.994 247.634 151.745 241.892C150.916 241.599 150.368 240.44 150.368 240.44C156.334 211.686 174.39 173.428 174.39 114.606C174.39 86.099 170.157 61.7652 161.837 49.0462C156.459 40.8247 152.216 38.8803 149.353 49.0463C142.662 63.2167 129.379 56.591 123.574 51.5069C119.303 48.4166 116.047 48.1978 116.9 61.7652C118.316 84.2967 102.737 106.828 93.5308 111.053L88.5737 108.94C77.9512 104.715 57.8817 86.7162 62.8618 58.2446C63.9949 51.7668 60.7373 50.148 57.5505 49.4436C54.3638 48.7391 48.3061 49.3174 49.0525 64.934C50.4659 94.5028 72.7926 111.992 78.93 116.217L75.6852 118.772Z" fill="white"/>
<path d="M164.627 85.4999C168.079 85.4999 170.877 82.7017 170.877 79.2499C170.877 75.7981 168.079 72.9999 164.627 72.9999C161.175 72.9999 158.377 75.7981 158.377 79.2499C158.377 82.7017 161.175 85.4999 164.627 85.4999Z" fill="#FF3F54"/>
<path d="M135.502 90.9999C138.954 90.9999 141.752 88.2017 141.752 84.7499C141.752 81.2981 138.954 78.4999 135.502 78.4999C132.05 78.4999 129.252 81.2981 129.252 84.7499C129.252 88.2017 132.05 90.9999 135.502 90.9999Z" fill="#FF3F54"/>
<path d="M62.5269 60.6318C64.4599 60.6318 66.0269 59.0648 66.0269 57.1318C66.0269 55.1988 64.4599 53.6318 62.5269 53.6318C60.5939 53.6318 59.0269 55.1988 59.0269 57.1318C59.0269 59.0648 60.5939 60.6318 62.5269 60.6318Z" fill="#6878ED"/>
<path d="M107.774 137.593C125.752 138.585 127.853 175.807 112.998 219.394C104.876 240.688 75.1431 245.825 59.9199 238.581C44.6967 231.338 85.3007 136.354 107.774 137.593Z" fill="#B4BCF6"/>
<path d="M124.591 253.92L122.881 260.759" stroke="black" stroke-width="2" stroke-linecap="round"/>
<path d="M128.01 255.63L127.155 261.615" stroke="black" stroke-width="2" stroke-linecap="round"/>
<path d="M132.599 255.526L131.97 261.718" stroke="black" stroke-width="2" stroke-linecap="round"/>
<path d="M33.3848 267.599C31.53 234.907 38.4546 158.533 80.9908 114.572" stroke="black" stroke-width="1.5" stroke-linecap="round"/>
<path d="M128.88 47.0437C128.88 47.0437 134.968 52.4016 137.786 53.8078L128.88 47.0437Z" fill="black"/>
<path d="M88.2142 114.598C82.0767 110.357 55.7717 90.2078 54.3584 60.5233C53.612 44.8456 59.6697 44.2651 62.8564 44.9723C66.0431 45.6795 69.3008 47.3046 68.1677 53.8078C63.1876 82.3908 83.257 100.461 93.8795 104.702M98.8366 106.823C108.043 102.581 123.622 79.9618 122.206 57.3421C121.353 43.7216 124.609 43.9413 128.88 47.0437M128.88 47.0437C128.88 47.0437 134.968 52.4016 137.786 53.8078M128.88 47.0437L137.786 53.8078M137.786 53.8078C144.867 57.3421 151.98 54.1266 154.659 44.5734C157.522 34.3677 161.765 36.3196 167.143 44.5733C175.463 57.3421 179.696 81.7712 179.696 110.39C179.696 169.442 161.64 207.849 155.674 236.716M154.75 266.743C188.742 257.907 182.795 280.551 170.361 281.418C155.812 282.433 153.365 279.298 137.786 276.47C122.206 273.643 65.9778 267.161 54.2221 276.47C43.5677 284.907 22.6555 279.313 17.3974 281.418C6.03484 285.967 1.81764 267.281 13.8565 267.281C23.4876 267.281 29.6723 269.637 31.5608 270.815M156.222 265.981C154.418 260.301 153.534 254.844 154.084 248.363M141.649 182.411C140.823 206.563 139.498 253.124 135.629 256.986C131.38 261.227 118.987 259.813 120.404 250.624C121.537 243.273 128.045 219.456 129.461 208.382" stroke="black" stroke-width="1.5" stroke-linecap="round"/>
<path d="M134.497 74.2558C133.643 69.215 142.608 64.8321 145.65 72.3649" stroke="black" stroke-width="1.5" stroke-linecap="round"/>
<path d="M153.214 70.9239C152.359 65.8831 161.324 61.5002 164.366 69.033" stroke="black" stroke-width="1.5" stroke-linecap="round"/>
<path d="M150.957 83.0685C147.531 82.3507 151.134 87.4361 148.694 92.9931C145.35 100.612 161.56 85.2905 150.957 83.0685Z" fill="black" stroke="black" stroke-width="1.5"/>
<path d="M63.2367 41.4788L61.5269 48.318" stroke="black" stroke-width="1.5" stroke-linecap="round"/>
<path d="M69.8771 45.2471L65.416 49.9997" stroke="black" stroke-width="1.5" stroke-linecap="round"/>
<path d="M57.1045 43.0284L57.7381 49.5158" stroke="black" stroke-width="1.5" stroke-linecap="round"/>
<path d="M152.764 236.21C166.588 244.403 205.607 243.28 208.316 209.489C210.805 178.443 181.076 158.42 188.481 119.338C195.887 80.2558 222.655 88.3934 228.546 103.745C229.891 107.25 233.527 118.659 225.99 120.217C224.182 120.116 220.074 118.62 218.104 113.448C215.641 106.983 213.92 103.745 208.316 103.745C202.712 103.745 190.706 120.221 196.863 141.154C203.02 162.088 223.645 186.407 218.104 218.423C212.563 250.439 172.851 258.751 150.994 246.437" stroke="black" stroke-width="1.5" stroke-linecap="round"/>
<path d="M126.157 87.22L135.57 83.6122" stroke="black" stroke-width="1.5" stroke-linecap="round"/>
<path d="M125.596 81.7903L135.519 83.5675" stroke="black" stroke-width="1.5" stroke-linecap="round"/>
<path d="M171.217 72.4976L163.552 79.0468" stroke="black" stroke-width="1.5" stroke-linecap="round"/>
<path d="M173.562 77.4267L163.616 79.0718" stroke="black" stroke-width="1.5" stroke-linecap="round"/>
<path d="M151.221 66.6529C149.256 66.4603 146.718 67.1592 145.249 67.9983M153.151 64.3127C152.077 64.9601 151.012 65.8956 151.817 68.4245C152.823 71.5856 155.341 75.0413 157.266 75.4545C159.192 75.8677 164.969 74.8837 166.676 73.3346C168.384 71.7855 168.553 69.8417 168.36 67.9795C168.167 66.1173 168.287 61.0087 164.784 61.1625C161.282 61.3164 155.39 62.963 153.151 64.3127ZM153.164 64.3619C152.09 65.0093 151.025 65.9448 151.83 68.4737C152.836 71.6348 155.354 75.0905 157.279 75.5037C159.205 75.9169 164.982 74.9329 166.689 73.3838C168.397 71.8347 168.566 69.8909 168.373 68.0287C168.18 66.1665 168.3 61.0579 164.797 61.2117C161.295 61.3656 155.403 63.0122 153.164 64.3619ZM142.304 66.2789C143.575 66.3978 144.979 66.7773 145.494 69.3714C146.138 72.6141 145.58 76.7628 144.067 77.9506C142.554 79.1384 136.931 80.7227 134.657 80.0705C132.383 79.4183 131.285 77.7599 130.549 76.02C129.814 74.2801 127.219 69.783 130.412 68.4285C133.605 67.0739 139.653 66.0308 142.304 66.2789Z" stroke="#55D1CF" stroke-width="1.5"/>
</svg>
