<svg width="426" height="528" viewBox="0 0 426 528" fill="none" xmlns="http://www.w3.org/2000/svg">
<path d="M336.482 230.91C346.792 224.966 366.757 209.513 364.137 195.248C360.862 177.418 363.046 139.21 367.776 140.301C372.507 141.393 375.782 143.576 376.874 144.668C377.965 145.759 381.604 140.665 385.607 144.668C388.809 147.87 386.941 154.493 385.607 157.404C391.186 161.285 398.599 171.209 394.704 198.887C390.411 229.389 385.607 253.107 339.393 269.118C302.422 281.927 322.048 248.983 336.482 230.91Z" fill="white"/>
<path d="M225.255 447.92C366.793 438.765 452.151 460.133 417.321 491.935C382.491 523.737 261.926 539.369 149.474 518.527C62.2871 502.367 42.1076 459.767 225.255 447.92Z" fill="#FADB28"/>
<path d="M322.699 21.3558C318.197 43.0784 307.895 43.8001 291.685 36.9628C285.236 34.2425 270.953 23.1869 270.953 23.1869C261.031 16.8964 253.789 16.8896 257.717 47.1663C261.793 78.5848 251.833 105.367 241.902 121.814C231.97 138.262 207.135 163.753 187.894 200.066C168.653 236.379 145.239 301.017 163.122 345.341C112.588 335.18 28.5408 316.201 54.3001 158.036C60.9993 116.903 66.5324 29.4351 28.7649 38.4095C5.99142 43.821 20.114 58.1118 25.0579 77.861C30.3627 99.052 27.3352 126.131 25.093 143.159C19.6337 184.618 -0.308767 273.236 51.9065 328.374C93.495 372.29 140.363 382.811 162.848 387.859L163.145 387.926C171.825 406.3 189.02 442.548 228.118 440.566C276.99 438.087 228.131 465.615 228.142 485.655C228.151 501.687 321.226 503.413 334.048 495.733C357.854 481.473 343.425 459.06 317.255 460.257C359.487 436.483 388.03 370.513 360.046 317.893C332.061 265.273 341.242 208.738 350.428 183.245C367.178 136.76 383.742 82.871 350.34 19.5012C340.078 0.0309187 327.508 -1.85044 322.699 21.3558Z" fill="white"/>
<path d="M314.542 457.463C342.22 439.269 376.464 481.894 335.836 486.942C296.774 492.241 305.364 469.497 314.542 457.463Z" fill="white"/>
<path d="M263.514 474.952C264.609 472.218 274.111 465.74 303.356 461.701C332.601 457.663 350.19 481.893 324.721 497.037C311.693 504.784 217.159 503.095 217.159 486.941C217.159 466.749 266.799 438.985 217.159 441.509C177.447 443.529 160.002 407.015 151.196 388.506L150.895 388.439C128.059 383.365 80.4621 372.789 38.2453 328.562C-14.7588 273.034 5.54469 183.733 11.1122 141.956C13.3989 124.797 16.4887 97.5113 11.1122 76.1624C6.10158 56.266 -8.23472 41.8743 14.8988 36.4094C53.2636 27.3462 47.596 115.481 40.7694 156.93C18.6652 291.14 93.232 331.881 142.442 345.598M313.91 457.463C341.588 439.268 375.832 481.893 335.205 486.941M151.196 345.598C133.056 300.947 156.873 235.805 176.436 199.206C195.998 162.607 221.237 136.909 231.333 120.331C241.429 103.753 251.56 76.7626 247.437 45.1078C243.464 14.6034 250.819 14.6063 260.894 20.9392C260.894 20.9392 275.395 32.0709 281.943 34.8083C298.404 41.6887 308.867 40.9559 313.452 19.0659C318.349 -4.31908 331.115 -2.4303 341.528 17.1822C375.419 81.0148 358.566 135.322 341.528 182.169C332.184 207.86 322.828 264.83 351.223 317.834C375.373 362.915 357.985 417.748 325.849 447.887" stroke="black" stroke-width="4" stroke-linecap="round"/>
<path d="M333.463 222.88C358.936 213.419 365.122 189.767 354.569 169.025C342.135 144.588 365.849 141.37 377.858 149.375C389.867 157.38 395.688 169.025 387.683 205.778C379.677 242.53 358.954 249.227 339.286 261.089" stroke="black" stroke-width="4" stroke-linecap="round"/>
<circle r="16.0475" transform="matrix(-0.999967 0.00809726 0.00809726 0.999967 355.359 92.3986)" fill="#FF3F54"/>
<path d="M379.403 98.5459L355.159 89.4785" stroke="black" stroke-width="4" stroke-linecap="round"/>
<path d="M380.731 84.5937L355.289 89.363" stroke="black" stroke-width="4" stroke-linecap="round"/>
<circle cx="275.53" cy="97.6603" r="16.0475" transform="rotate(-3.44294 275.53 97.6603)" fill="#FF3F54"/>
<path d="M251.96 105.431L275.53 94.733" stroke="black" stroke-width="4" stroke-linecap="round"/>
<path d="M249.685 91.6028L275.392 94.6276" stroke="black" stroke-width="4" stroke-linecap="round"/>
<path d="M174.808 258.107C183.395 264.193 204.741 272.955 221.424 259.311C242.279 242.257 242.442 216.023 267.845 188.948C282.49 173.339 291.66 175.639 306.646 180.687C321.632 185.735 329.415 173.53 330.352 164.521C332.675 142.196 312.333 132.761 285.665 138.094C262.003 142.827 241.141 151.357 218.471 191.183" stroke="black" stroke-width="4" stroke-linecap="round"/>
<path d="M288.119 332.347C311.467 348.754 315.141 382.5 317.145 379.672C327.498 365.066 329.767 350.587 329.767 332.347C329.43 320.081 328.181 307.17 326.29 294.567C269.783 313.854 256.081 306.225 257.031 308.759C262.989 324.65 282.285 328.247 288.119 332.347Z" fill="#B4BCF6"/>
<path d="M272.348 324.144C296.326 329.869 326.867 372.356 312.732 405.725C298.598 439.093 287.072 449.684 276.134 462.157" stroke="black" stroke-width="4" stroke-linecap="round"/>
<path d="M310.064 70.4105C310.064 78.1923 303.911 84.4217 296.417 84.4217C288.923 84.4217 282.77 78.1923 282.77 70.4105C282.77 62.6288 288.923 56.3994 296.417 56.3994C303.911 56.3994 310.064 62.6288 310.064 70.4105Z" stroke="black" stroke-width="4"/>
<path d="M350.82 64.2244C350.82 71.7184 344.59 77.8716 336.809 77.8716C329.027 77.8716 322.797 71.7184 322.797 64.2244C322.797 56.7303 329.027 50.5771 336.809 50.5771C344.59 50.5771 350.82 56.7303 350.82 64.2244Z" stroke="black" stroke-width="4"/>
<circle cx="336.809" cy="63.8603" r="2.91111" fill="black"/>
<circle cx="296.781" cy="69.6826" r="2.91111" fill="black"/>
<path fill-rule="evenodd" clip-rule="evenodd" d="M269.957 69.3638C269.824 68.5004 270.416 67.6927 271.28 67.5597L276.076 66.8213C276.94 66.6883 277.747 67.2805 277.88 68.1439C278.013 69.0073 277.421 69.815 276.558 69.9479L271.761 70.6864C270.898 70.8193 270.09 70.2272 269.957 69.3638Z" fill="url(#paint0_linear_1181_2709)"/>
<path fill-rule="evenodd" clip-rule="evenodd" d="M354.79 56.3027C354.657 55.4393 355.249 54.6316 356.113 54.4987L360.909 53.7602C361.773 53.6273 362.58 54.2195 362.713 55.0829C362.846 55.9463 362.254 56.754 361.391 56.8869L356.594 57.6254C355.731 57.7583 354.923 57.1661 354.79 56.3027Z" fill="url(#paint1_linear_1181_2709)"/>
<path fill-rule="evenodd" clip-rule="evenodd" d="M290.512 56.1499C282.371 57.4033 276.752 65.1902 278.048 73.6062C279.343 82.0222 287.044 87.7583 295.186 86.5049C303.327 85.2515 308.946 77.4646 307.65 69.0486C306.354 60.6326 298.653 54.8965 290.512 56.1499ZM274.921 74.0876C273.37 64.0122 280.096 54.5528 290.031 53.0232C299.965 51.4937 309.226 58.4918 310.777 68.5672C312.328 78.6426 305.602 88.102 295.667 89.6316C285.732 91.1611 276.472 84.163 274.921 74.0876Z" fill="url(#paint2_linear_1181_2709)"/>
<path fill-rule="evenodd" clip-rule="evenodd" d="M338.476 48.7652C330.335 50.0187 324.716 57.8056 326.012 66.2216C327.308 74.6376 335.009 80.3737 343.15 79.1203C351.291 77.8668 356.91 70.0799 355.614 61.6639C354.319 53.2479 346.618 47.5118 338.476 48.7652ZM322.885 66.703C321.334 56.6275 328.06 47.1681 337.995 45.6386C347.93 44.109 357.19 51.1071 358.741 61.1825C360.292 71.258 353.566 80.7174 343.631 82.2469C333.697 83.7765 324.436 76.7784 322.885 66.703Z" fill="url(#paint3_linear_1181_2709)"/>
<path fill-rule="evenodd" clip-rule="evenodd" d="M310.649 64.4268C310.554 65.1003 310.029 65.6612 309.323 65.77C308.459 65.903 307.651 65.3108 307.519 64.4474C307.354 63.3779 307.987 62.5834 308.438 62.1607C308.934 61.6955 309.592 61.308 310.284 60.9866C311.689 60.3344 313.592 59.7937 315.67 59.4738C317.748 59.1539 319.726 59.0971 321.262 59.2964C322.019 59.3946 322.763 59.5665 323.376 59.8608C323.933 60.1282 324.776 60.6956 324.941 61.7651C325.074 62.6285 324.482 63.4362 323.618 63.5691C322.911 63.6779 322.242 63.3009 321.949 62.6869C321.749 62.6024 321.393 62.5034 320.855 62.4336C319.689 62.2823 318.021 62.3126 316.152 62.6005C314.282 62.8883 312.683 63.3611 311.616 63.8561C311.124 64.0843 310.815 64.2858 310.649 64.4268ZM310.536 64.538C310.536 64.538 310.54 64.532 310.551 64.5196C310.542 64.5318 310.536 64.538 310.536 64.538ZM322.09 62.7591C322.09 62.7591 322.082 62.7551 322.071 62.746C322.085 62.7544 322.09 62.7591 322.09 62.7591Z" fill="url(#paint4_linear_1181_2709)"/>
<path d="M322.483 143.429C321.654 142.779 321.091 141.817 321.091 140.763V133.365C321.091 130.09 330.625 126.087 342.561 126.087C354.172 126.087 363.855 128.842 365.377 133.012C365.461 133.242 365.486 133.489 365.486 133.734V184.74C365.486 184.937 365.471 185.135 365.41 185.322C364.585 187.823 359.086 192.315 342.561 192.315C325.385 192.315 321.091 187.463 321.091 185.037V181.61C321.091 180.383 321.856 179.288 322.822 178.533C325.446 176.48 329.023 171.698 330.188 162.84C331.474 153.071 326.232 146.367 322.483 143.429Z" fill="white"/>
<path d="M322.822 178.533L324.054 180.108L322.822 178.533ZM365.41 185.322L367.309 185.948L365.41 185.322ZM322.483 143.429L323.717 141.855L322.483 143.429ZM323.091 140.763V133.365H319.091V140.763H323.091ZM323.091 133.365C323.091 133.51 323.04 133.164 323.991 132.428C324.851 131.763 326.209 131.041 328.034 130.377C331.665 129.056 336.798 128.087 342.561 128.087V124.087C336.388 124.087 330.786 125.119 326.666 126.618C324.616 127.364 322.844 128.258 321.543 129.264C320.334 130.2 319.091 131.582 319.091 133.365H323.091ZM342.561 128.087C348.228 128.087 353.351 128.762 357.181 129.902C359.099 130.474 360.623 131.141 361.715 131.849C362.828 132.57 363.325 133.223 363.499 133.698L367.256 132.326C366.668 130.716 365.384 129.461 363.89 128.492C362.376 127.511 360.467 126.708 358.323 126.069C354.029 124.79 348.504 124.087 342.561 124.087V128.087ZM363.486 133.734V184.74H367.486V133.734H363.486ZM363.51 184.696C363.366 185.132 362.434 186.561 359.122 187.903C355.892 189.211 350.662 190.315 342.561 190.315V194.315C350.985 194.315 356.767 193.173 360.624 191.61C364.399 190.08 366.628 188.013 367.309 185.948L363.51 184.696ZM342.561 190.315C334.126 190.315 329.087 189.118 326.237 187.776C323.292 186.39 323.091 185.096 323.091 185.037H319.091C319.091 187.404 321.037 189.749 324.533 191.395C328.124 193.086 333.82 194.315 342.561 194.315V190.315ZM323.091 185.037V181.61H319.091V185.037H323.091ZM321.25 145.003C324.628 147.651 329.371 153.718 328.205 162.579L332.171 163.101C333.576 152.424 327.836 145.083 323.717 141.855L321.25 145.003ZM328.205 162.579C327.097 171 323.74 175.276 321.59 176.957L324.054 180.108C327.153 177.685 330.948 172.395 332.171 163.101L328.205 162.579ZM323.091 181.61C323.091 181.229 323.355 180.655 324.054 180.108L321.59 176.957C320.356 177.922 319.091 179.537 319.091 181.61H323.091ZM363.486 184.74C363.486 184.766 363.485 184.784 363.485 184.795C363.484 184.806 363.484 184.809 363.484 184.805C363.485 184.798 363.49 184.757 363.51 184.696L367.309 185.948C367.47 185.461 367.486 185.014 367.486 184.74H363.486ZM363.499 133.698C363.483 133.656 363.481 133.632 363.481 133.639C363.482 133.642 363.483 133.651 363.484 133.667C363.485 133.683 363.486 133.705 363.486 133.734H367.486C367.486 133.372 367.452 132.864 367.256 132.326L363.499 133.698ZM319.091 140.763C319.091 142.549 320.036 144.053 321.25 145.003L323.717 141.855C323.271 141.506 323.091 141.086 323.091 140.763H319.091Z" fill="black"/>
<path d="M360.098 135.185C360.098 138.4 352.603 141.007 343.359 141.007C334.114 141.007 326.62 138.4 326.62 135.185" stroke="black" stroke-width="4" stroke-linecap="round"/>
<path d="M366.213 135.184C368.639 135.063 373.491 137.003 373.491 145.737" stroke="black" stroke-width="4" stroke-linecap="round" stroke-linejoin="round"/>
<path d="M365.998 182.973C369.754 182.459 377.269 180.603 377.276 177.284" stroke="black" stroke-width="4" stroke-linecap="round" stroke-linejoin="round"/>
<path d="M373.127 138.459C377.494 135.669 386.009 137.585 380.769 151.558" stroke="black" stroke-width="4" stroke-linecap="round" stroke-linejoin="round"/>
<path d="M244.2 8.5498C239.348 13.4017 231.1 26.4532 236.922 39.8443" stroke="black" stroke-width="4" stroke-linecap="round" stroke-linejoin="round"/>
<path d="M230.777 18.0111C227.363 23.9635 222.818 38.7185 231.941 50.1196" stroke="black" stroke-width="4" stroke-linecap="round" stroke-linejoin="round"/>
<path d="M396.816 195.06C400.337 185.144 404.598 162.853 393.468 153.022" stroke="black" stroke-width="4" stroke-linecap="round" stroke-linejoin="round"/>
<path d="M153.702 296.75C194.458 306.939 286.885 319.894 330.552 290.2" stroke="black" stroke-width="4" stroke-linecap="round" stroke-linejoin="round"/>
<path d="M231.574 128.997C236.305 133.849 246.275 148.283 257.047 148.283" stroke="black" stroke-width="4" stroke-linecap="round" stroke-linejoin="round"/>
<path d="M237.396 165.75C239.216 175.09 247.149 193.333 264.324 191.586" stroke="black" stroke-width="4" stroke-linecap="round" stroke-linejoin="round"/>
<path d="M360.027 195.589C369.246 198.379 388.192 201.193 390.23 190.131" stroke="black" stroke-width="4" stroke-linecap="round" stroke-linejoin="round"/>
<path d="M293.425 222.219C293.077 222.158 292.72 222.158 292.372 222.219C291.147 222.673 290.363 221.509 289.64 220.247C289.564 219.801 289.564 219.346 289.64 218.9C289.946 218.9 290.449 218.74 290.522 218.9C290.926 220.051 291.551 219.978 292.2 219.978C293.082 219.978 293.977 219.978 294.859 219.978C295.026 220.012 295.198 220.012 295.366 219.979C295.533 219.947 295.693 219.881 295.835 219.787C295.977 219.692 296.1 219.571 296.195 219.429C296.29 219.287 296.356 219.128 296.39 218.961C296.491 218.833 296.638 218.749 296.8 218.726C296.962 218.703 297.127 218.743 297.26 218.838C297.652 219.243 297.48 219.794 297.26 220.357C296.206 222.562 294.859 222.354 293.425 222.219Z" fill="black"/>
<path d="M305.825 200.374L283.939 197.851L282.716 197.772L279.922 241.169L303.878 240.87L305.825 200.374Z" stroke="black" stroke-width="3" stroke-linecap="round" stroke-linejoin="round"/>
<path d="M301.522 204.15L288.044 203.025L287.292 202.977L285.797 226.203L300.529 226.166L301.522 204.15Z" stroke="black" stroke-width="3" stroke-linecap="round" stroke-linejoin="round"/>
<path d="M299.447 232.945L295.183 232.946" stroke="black" stroke-width="3" stroke-linecap="round" stroke-linejoin="round"/>
<path d="M300.743 241.896L300.507 245.564L282.052 246.217L282.328 241.938" stroke="black" stroke-width="3" stroke-linecap="round" stroke-linejoin="round"/>
<path d="M333.611 92.9716C335.387 105.271 311.667 115.629 304.419 97.1879L333.611 92.9716Z" stroke="black" stroke-width="3" stroke-linecap="round" stroke-linejoin="round"/>
<path d="M310.607 96.4697L311.898 105.867" stroke="black" stroke-width="3" stroke-linecap="round" stroke-linejoin="round"/>
<path d="M328.423 94.0107L330.111 102.21" stroke="black" stroke-width="3" stroke-linecap="round" stroke-linejoin="round"/>
<path d="M316.766 95.7168L318.443 107.216" stroke="black" stroke-width="3" stroke-linecap="round" stroke-linejoin="round"/>
<path d="M322.766 94.8652L324.552 105.585" stroke="black" stroke-width="3" stroke-linecap="round" stroke-linejoin="round"/>
<defs>
<linearGradient id="paint0_linear_1181_2709" x1="283.42" y1="76.257" x2="338.254" y2="66.7664" gradientUnits="userSpaceOnUse">
<stop stop-color="#B4BCF6"/>
<stop offset="0.515625" stop-color="#0DE4E0"/>
<stop offset="1" stop-color="#FADB28"/>
</linearGradient>
<linearGradient id="paint1_linear_1181_2709" x1="283.42" y1="76.257" x2="338.254" y2="66.7664" gradientUnits="userSpaceOnUse">
<stop stop-color="#B4BCF6"/>
<stop offset="0.515625" stop-color="#0DE4E0"/>
<stop offset="1" stop-color="#FADB28"/>
</linearGradient>
<linearGradient id="paint2_linear_1181_2709" x1="283.42" y1="76.257" x2="338.254" y2="66.7664" gradientUnits="userSpaceOnUse">
<stop stop-color="#B4BCF6"/>
<stop offset="0.515625" stop-color="#0DE4E0"/>
<stop offset="1" stop-color="#FADB28"/>
</linearGradient>
<linearGradient id="paint3_linear_1181_2709" x1="283.42" y1="76.257" x2="338.254" y2="66.7664" gradientUnits="userSpaceOnUse">
<stop stop-color="#B4BCF6"/>
<stop offset="0.515625" stop-color="#0DE4E0"/>
<stop offset="1" stop-color="#FADB28"/>
</linearGradient>
<linearGradient id="paint4_linear_1181_2709" x1="283.42" y1="76.257" x2="338.254" y2="66.7664" gradientUnits="userSpaceOnUse">
<stop stop-color="#B4BCF6"/>
<stop offset="0.515625" stop-color="#0DE4E0"/>
<stop offset="1" stop-color="#FADB28"/>
</linearGradient>
</defs>
</svg>
